# xmcd
#
# Track frame offsets:
#	150
#	12380
#	26522
#	37190
#	50762
#	65275
#	77857
#	89492
#	101125
#	112592
#	124485
#	134810
#	147825
#	159752
#
# Disc length: 2292 seconds
#
# Revision: 7
# Processed by: cddbd v1.5.2PL0 Copyright (c) Steve Scherf et al.
# Submitted via: EZCDAudioConverter 7.0.6.1
#
DISCID=c308f20e
DTITLE=Esquivel - Space-Age Bachelor Pad Music
DYEAR=1994
DGENRE=
TTITLE0=Sentimental Journey
TTITLE1=Latin-Esque
TTITLE2=Mucha Muchacha
TTITLE3=Surfboard
TTITLE4=Begin The Beguine
TTITLE5=Lazy Bones
TTITLE6=Whatchamacallit
TTITLE7=Music Makers
TTITLE8=Harlem Nocturne
TTITLE9=Jalousie (Jealousy)
TTITLE10=Bye Bye Blues
TTITLE11=Baía
TTITLE12=Who's Sorry Now
TTITLE13=Anna (El Negro Zumbon)
EXTD=
EXTT0=
EXTT1=
EXTT2=
EXTT3=
EXTT4=
EXTT5=
EXTT6=
EXTT7=
EXTT8=
EXTT9=
EXTT10=
EXTT11=
EXTT12=
EXTT13=
PLAYORDER=
